#define logo_width 120
#define logo_height 36
static unsigned char logo_bits[] = {
   0x00, 0x00, 0x00, 0x00, 0x00, 0x00, 0x00, 0xff, 0x01, 0x00, 0x00, 0x00,
   0x00, 0x00, 0x00, 0x00, 0x00, 0x00, 0x00, 0x00, 0x00, 0xf0, 0xff, 0x07,
   0x00, 0x00, 0x00, 0x00, 0x00, 0x00, 0x00, 0x00, 0x00, 0x00, 0x00, 0x00,
   0xf8, 0x3f, 0x1e, 0x00, 0x00, 0x00, 0x00, 0x00, 0x00, 0x00, 0x00, 0x00,
   0x00, 0x00, 0x00, 0xce, 0x3f, 0x7e, 0x00, 0x00, 0x00, 0x00, 0x00, 0x00,
   0x00, 0x00, 0x00, 0x00, 0x00, 0x00, 0xc7, 0x1f, 0xff, 0x00, 0x00, 0x00,
   0x00, 0x00, 0x00, 0x00, 0x00, 0x00, 0x00, 0x00, 0x80, 0xc7, 0x1f, 0xff,
   0x01, 0x00, 0x00, 0x00, 0x00, 0x00, 0x00, 0x00, 0x00, 0x00, 0x00, 0xc0,
   0xc7, 0x8f, 0xff, 0x03, 0x00, 0x00, 0x00, 0x00, 0x00, 0x00, 0x00, 0x00,
   0x00, 0x00, 0xe0, 0xc7, 0xcf, 0xff, 0x07, 0x00, 0x00, 0x00, 0x00, 0x00,
   0x00, 0x00, 0x00, 0x00, 0x00, 0xe0, 0xc7, 0xc7, 0xff, 0x05, 0x00, 0x00,
   0x00, 0x00, 0x00, 0x00, 0x00, 0x00, 0x00, 0x00, 0xf0, 0xe7, 0xe7, 0x7f,
   0x0c, 0x00, 0x00, 0x00, 0x00, 0x00, 0x00, 0x00, 0x00, 0x00, 0x00, 0xd8,
   0xe7, 0xe3, 0x1f, 0x08, 0x00, 0x00, 0x00, 0x00, 0x00, 0x00, 0x00, 0x00,
   0x00, 0x00, 0x98, 0xe7, 0xf3, 0x07, 0x18, 0x00, 0x00, 0x00, 0x00, 0x00,
   0x00, 0x00, 0x00, 0x00, 0x00, 0x98, 0xe7, 0xf9, 0x03, 0x18, 0x00, 0x00,
   0x00, 0x00, 0x00, 0x80, 0x3f, 0xe3, 0xfe, 0x00, 0x1c, 0xe7, 0xf9, 0x00,
   0x1e, 0x00, 0xfe, 0xfc, 0x01, 0x00, 0x80, 0x3f, 0x63, 0xfe, 0x00, 0x3c,
   0xe7, 0x3c, 0x80, 0x3f, 0x00, 0xfe, 0xfc, 0x01, 0x00, 0x80, 0x03, 0x73,
   0x38, 0x00, 0x7c, 0xe6, 0x0c, 0xe0, 0x3f, 0x00, 0x38, 0x70, 0x00, 0x00,
   0x80, 0x03, 0x3b, 0x38, 0x00, 0x7c, 0x66, 0x06, 0xfc, 0x3f, 0x00, 0x38,
   0x70, 0x00, 0x00, 0x80, 0x3f, 0x1b, 0x38, 0x00, 0xe4, 0x24, 0x83, 0xff,
   0x3f, 0x00, 0x38, 0x70, 0x00, 0x00, 0x80, 0x3f, 0x1f, 0x38, 0x00, 0x84,
   0x00, 0xf0, 0xff, 0x3f, 0x00, 0x38, 0x70, 0x00, 0x00, 0x80, 0x03, 0x3b,
   0x38, 0x00, 0x0c, 0x3c, 0xf8, 0xff, 0x3f, 0x00, 0x38, 0x70, 0x00, 0x00,
   0x80, 0x03, 0x33, 0x38, 0x00, 0x1c, 0x42, 0x00, 0x00, 0x20, 0x00, 0x38,
   0x70, 0x00, 0x00, 0x80, 0x03, 0x73, 0x38, 0x00, 0x7c, 0xe1, 0xff, 0x03,
   0x30, 0x00, 0x38, 0x70, 0x00, 0x00, 0x80, 0x3f, 0xe3, 0xfe, 0x00, 0x18,
   0xf9, 0xef, 0x1f, 0x10, 0x00, 0xfe, 0xfc, 0x01, 0x00, 0x80, 0x3f, 0xe3,
   0xfe, 0x00, 0x08, 0xfd, 0xef, 0x3f, 0x10, 0x00, 0xfe, 0xfc, 0x01, 0x00,
   0x00, 0x00, 0x00, 0x00, 0x00, 0x18, 0xff, 0xef, 0xff, 0x18, 0x00, 0x00,
   0x00, 0x00, 0x00, 0x00, 0x00, 0x00, 0x00, 0x00, 0x90, 0xff, 0xef, 0xff,
   0x09, 0x00, 0x00, 0x00, 0x00, 0x00, 0x00, 0x00, 0x00, 0x00, 0x00, 0xf0,
   0xff, 0xef, 0xff, 0x0f, 0x00, 0x00, 0x00, 0x00, 0x00, 0x00, 0x00, 0x00,
   0x00, 0x00, 0xe0, 0xff, 0xef, 0xff, 0x07, 0x00, 0x00, 0x00, 0x00, 0x00,
   0x00, 0x00, 0x00, 0x00, 0x00, 0xe0, 0x81, 0xf7, 0x01, 0x06, 0x00, 0x00,
   0x00, 0x00, 0x00, 0x00, 0x00, 0x00, 0x00, 0x00, 0xc0, 0x80, 0xc3, 0x00,
   0x03, 0x00, 0x00, 0x00, 0x00, 0x00, 0x00, 0x00, 0x00, 0x00, 0x00, 0x80,
   0x81, 0x0f, 0x80, 0x01, 0x00, 0x00, 0x00, 0x00, 0x00, 0x00, 0x00, 0x00,
   0x00, 0x00, 0x00, 0x03, 0x0f, 0xc0, 0x00, 0x00, 0x00, 0x00, 0x00, 0x00,
   0x00, 0x00, 0x00, 0x00, 0x00, 0x00, 0x0e, 0x0f, 0x70, 0x00, 0x00, 0x00,
   0x00, 0x00, 0x00, 0x00, 0x00, 0x00, 0x00, 0x00, 0x00, 0x38, 0x00, 0x1c,
   0x00, 0x00, 0x00, 0x00, 0x00, 0x00, 0x00, 0x00, 0x00, 0x00, 0x00, 0x00,
   0xe0, 0x81, 0x07, 0x00, 0x00, 0x00, 0x00, 0x00, 0x00, 0x00, 0x00, 0x00,
   0x00, 0x00, 0x00, 0x00, 0xff, 0x00, 0x00, 0x00, 0x00, 0x00, 0x00, 0x00 };
